{
  "accessors": [
    {
      "bufferView": 2,
      "componentType": 5126,
      "count": 4435,
      "max": [
        0.3956089913845062,
        0.014609700068831444,
        0.64718097448349
      ],
      "min": [
        -0.17864499986171722,
        -0.037357501685619354,
        0.07292699813842773
      ],
      "type": "VEC3"
    },
    {
      "bufferView": 2,
      "byteOffset": 53220,
      "componentType": 5126,
      "count": 4435,
      "max": [
        1.0,
        1.0,
        1.0
      ],
      "min": [
        -1.0,
        -1.0,
        -1.0
      ],
      "type": "VEC3"
    },
    {
      "bufferView": 3,
      "componentType": 5126,
      "count": 4435,
      "max": [
        1.0,
        0.9999945759773254,
        0.9976390600204468,
        1.0
      ],
      "min": [
        -0.9999993443489075,
        -0.9999939799308777,
        -0.9728226065635681,
        -1.0
      ],
      "type": "VEC4"
    },
    {
      "bufferView": 1,
      "componentType": 5126,
      "count": 4435,
      "max": [
        0.5126010179519653,
        1.0
      ],
      "min": [
        0.0,
        0.0
      ],
      "type": "VEC2"
    },
    {
      "bufferView": 0,
      "componentType": 5125,
      "count": 23190,
      "type": "SCALAR"
    },
    {
      "bufferView": 2,
      "byteOffset": 106440,
      "componentType": 5126,
      "count": 3588,
      "max": [
        -0.39753401279449463,
        0.03079189918935299,
        -0.008747770451009274
      ],
      "min": [
        -0.9889659881591797,
        -0.020374400541186333,
        -0.6001790165901184
      ],
      "type": "VEC3"
    },
    {
      "bufferView": 2,
      "byteOffset": 149496,
      "componentType": 5126,
      "count": 3588,
      "max": [
        1.0,
        1.0,
        1.0
      ],
      "min": [
        -1.0,
        -1.0,
        -1.0
      ],
      "type": "VEC3"
    },
    {
      "bufferView": 3,
      "byteOffset": 70960,
      "componentType": 5126,
      "count": 3588,
      "max": [
        1.0,
        0.9999886751174927,
        0.9998729825019836,
        1.0
      ],
      "min": [
        -0.9942863583564758,
        -0.9999948740005493,
        -0.9982784986495972,
        -1.0
      ],
      "type": "VEC4"
    },
    {
      "bufferView": 1,
      "byteOffset": 35480,
      "componentType": 5126,
      "count": 3588,
      "max": [
        0.5184869766235352,
        1.0
      ],
      "min": [
        0.0,
        0.0
      ],
      "type": "VEC2"
    },
    {
      "bufferView": 0,
      "byteOffset": 92760,
      "componentType": 5125,
      "count": 7632,
      "type": "SCALAR"
    },
    {
      "bufferView": 2,
      "byteOffset": 192552,
      "componentType": 5126,
      "count": 3614,
      "max": [
        0.43288999795913696,
        0.013048299588263035,
        -0.02575800009071827
      ],
      "min": [
        -0.19016499817371368,
        -0.014186900109052658,
        -0.64718097448349
      ],
      "type": "VEC3"
    },
    {
      "bufferView": 2,
      "byteOffset": 235920,
      "componentType": 5126,
      "count": 3614,
      "max": [
        1.0,
        1.0,
        1.0
      ],
      "min": [
        -1.0,
        -1.0,
        -1.0
      ],
      "type": "VEC3"
    },
    {
      "bufferView": 3,
      "byteOffset": 128368,
      "componentType": 5126,
      "count": 3614,
      "max": [
        0.9988271594047546,
        0.9999963641166687,
        0.9322201013565063,
        1.0
      ],
      "min": [
        -1.0,
        -1.0,
        -0.8511621952056885,
        1.0
      ],
      "type": "VEC4"
    },
    {
      "bufferView": 1,
      "byteOffset": 64184,
      "componentType": 5126,
      "count": 3614,
      "max": [
        0.5014439821243286,
        1.0
      ],
      "min": [
        0.0,
        0.0
      ],
      "type": "VEC2"
    },
    {
      "bufferView": 0,
      "byteOffset": 123288,
      "componentType": 5125,
      "count": 18900,
      "type": "SCALAR"
    },
    {
      "bufferView": 2,
      "byteOffset": 279288,
      "componentType": 5126,
      "count": 3420,
      "max": [
        -0.39991798996925354,
        0.04050749912858009,
        0.6129729747772217
      ],
      "min": [
        -1.0,
        0.005233809817582369,
        0.014214400202035904
      ],
      "type": "VEC3"
    },
    {
      "bufferView": 2,
      "byteOffset": 320328,
      "componentType": 5126,
      "count": 3420,
      "max": [
        1.0,
        1.0,
        1.0
      ],
      "min": [
        -1.0,
        -1.0,
        -1.0
      ],
      "type": "VEC3"
    },
    {
      "bufferView": 3,
      "byteOffset": 186192,
      "componentType": 5126,
      "count": 3420,
      "max": [
        0.9999989867210388,
        0.9999992847442627,
        0.9345002770423889,
        1.0
      ],
      "min": [
        -0.9947671294212341,
        -0.9999980926513672,
        -0.9824446439743042,
        1.0
      ],
      "type": "VEC4"
    },
    {
      "bufferView": 1,
      "byteOffset": 93096,
      "componentType": 5126,
      "count": 3420,
      "max": [
        0.5049660205841064,
        1.0
      ],
      "min": [
        0.0,
        0.0
      ],
      "type": "VEC2"
    },
    {
      "bufferView": 0,
      "byteOffset": 198888,
      "componentType": 5125,
      "count": 17640,
      "type": "SCALAR"
    },
    {
      "bufferView": 2,
      "byteOffset": 361368,
      "componentType": 5126,
      "count": 2770,
      "max": [
        1.0,
        0.02162659913301468,
        0.3395090103149414
      ],
      "min": [
        0.4239859879016876,
        -0.04050749912858009,
        -0.2430890053510666
      ],
      "type": "VEC3"
    },
    {
      "bufferView": 2,
      "byteOffset": 394608,
      "componentType": 5126,
      "count": 2770,
      "max": [
        0.9999995231628418,
        1.0,
        0.9999026656150818
      ],
      "min": [
        -0.9999995827674866,
        -1.0,
        -0.9999024868011475
      ],
      "type": "VEC3"
    },
    {
      "bufferView": 3,
      "byteOffset": 240912,
      "componentType": 5126,
      "count": 2770,
      "max": [
        0.999998927116394,
        1.0,
        0.9430890083312988,
        1.0
      ],
      "min": [
        -0.9999939799308777,
        -0.9999961256980896,
        -0.94834965467453,
        1.0
      ],
      "type": "VEC4"
    },
    {
      "bufferView": 1,
      "byteOffset": 120456,
      "componentType": 5126,
      "count": 2770,
      "max": [
        0.5124989748001099,
        1.0
      ],
      "min": [
        0.0,
        0.0
      ],
      "type": "VEC2"
    },
    {
      "bufferView": 0,
      "byteOffset": 269448,
      "componentType": 5125,
      "count": 14982,
      "type": "SCALAR"
    }
  ],
  "asset": {
    "extras": {
      "author": "metalheadqx (https://sketchfab.com/metalheadqx)",
      "license": "CC-BY-4.0 (http://creativecommons.org/licenses/by/4.0/)",
      "source": "https://sketchfab.com/3d-models/gears-7527407ee129497f93f10d9f6c55eb01",
      "title": "Gears"
    },
    "generator": "Sketchfab-12.68.0",
    "version": "2.0"
  },
  "bufferViews": [
    {
      "buffer": 0,
      "byteLength": 329376,
      "name": "floatBufferViews",
      "target": 34963
    },
    {
      "buffer": 0,
      "byteLength": 142616,
      "byteOffset": 329376,
      "byteStride": 8,
      "name": "floatBufferViews",
      "target": 34962
    },
    {
      "buffer": 0,
      "byteLength": 427848,
      "byteOffset": 471992,
      "byteStride": 12,
      "name": "floatBufferViews",
      "target": 34962
    },
    {
      "buffer": 0,
      "byteLength": 285232,
      "byteOffset": 899840,
      "byteStride": 16,
      "name": "floatBufferViews",
      "target": 34962
    }
  ],
  "buffers": [
    {
      "byteLength": 1185072,
      "uri": "scene.bin"
    }
  ],
  "images": [
    {
      "uri": "textures/M_Gear_1_baseColor.jpeg"
    },
    {
      "uri": "textures/M_Gear_1_metallicRoughness.png"
    },
    {
      "uri": "textures/M_Gear_1_normal.png"
    },
    {
      "uri": "textures/M_Gear_2_baseColor.jpeg"
    },
    {
      "uri": "textures/M_Gear_2_metallicRoughness.png"
    },
    {
      "uri": "textures/M_Gear_2_normal.png"
    },
    {
      "uri": "textures/M_Gear_4_baseColor.jpeg"
    },
    {
      "uri": "textures/M_Gear_4_metallicRoughness.png"
    },
    {
      "uri": "textures/M_Gear_4_normal.png"
    },
    {
      "uri": "textures/M_Gear_5_baseColor.jpeg"
    },
    {
      "uri": "textures/M_Gear_5_metallicRoughness.png"
    },
    {
      "uri": "textures/M_Gear_5_normal.png"
    },
    {
      "uri": "textures/M_Gear_3_baseColor.jpeg"
    },
    {
      "uri": "textures/M_Gear_3_metallicRoughness.png"
    },
    {
      "uri": "textures/M_Gear_3_normal.png"
    }
  ],
  "materials": [
    {
      "doubleSided": true,
      "name": "M_Gear_1",
      "normalTexture": {
        "index": 2
      },
      "occlusionTexture": {
        "index": 1
      },
      "pbrMetallicRoughness": {
        "baseColorTexture": {
          "index": 0
        },
        "metallicRoughnessTexture": {
          "index": 1
        }
      }
    },
    {
      "doubleSided": true,
      "name": "M_Gear_2",
      "normalTexture": {
        "index": 5
      },
      "occlusionTexture": {
        "index": 4
      },
      "pbrMetallicRoughness": {
        "baseColorTexture": {
          "index": 3
        },
        "metallicRoughnessTexture": {
          "index": 4
        }
      }
    },
    {
      "doubleSided": true,
      "name": "M_Gear_4",
      "normalTexture": {
        "index": 8
      },
      "occlusionTexture": {
        "index": 7
      },
      "pbrMetallicRoughness": {
        "baseColorTexture": {
          "index": 6
        },
        "metallicRoughnessTexture": {
          "index": 7
        }
      }
    },
    {
      "doubleSided": true,
      "name": "M_Gear_5",
      "normalTexture": {
        "index": 11
      },
      "occlusionTexture": {
        "index": 10
      },
      "pbrMetallicRoughness": {
        "baseColorTexture": {
          "index": 9
        },
        "metallicRoughnessTexture": {
          "index": 10
        }
      }
    },
    {
      "doubleSided": true,
      "name": "M_Gear_3",
      "normalTexture": {
        "index": 14
      },
      "occlusionTexture": {
        "index": 13
      },
      "pbrMetallicRoughness": {
        "baseColorTexture": {
          "index": 12
        },
        "metallicRoughnessTexture": {
          "index": 13
        }
      }
    }
  ],
  "meshes": [
    {
      "name": "defaultMaterial",
      "primitives": [
        {
          "attributes": {
            "NORMAL": 1,
            "POSITION": 0,
            "TANGENT": 2,
            "TEXCOORD_0": 3
          },
          "indices": 4,
          "material": 4,
          "mode": 4
        }
      ]
    },
    {
      "name": "defaultMaterial",
      "primitives": [
        {
          "attributes": {
            "NORMAL": 6,
            "POSITION": 5,
            "TANGENT": 7,
            "TEXCOORD_0": 8
          },
          "indices": 9,
          "material": 3,
          "mode": 4
        }
      ]
    },
    {
      "name": "defaultMaterial",
      "primitives": [
        {
          "attributes": {
            "NORMAL": 11,
            "POSITION": 10,
            "TANGENT": 12,
            "TEXCOORD_0": 13
          },
          "indices": 14,
          "material": 2,
          "mode": 4
        }
      ]
    },
    {
      "name": "defaultMaterial",
      "primitives": [
        {
          "attributes": {
            "NORMAL": 16,
            "POSITION": 15,
            "TANGENT": 17,
            "TEXCOORD_0": 18
          },
          "indices": 19,
          "material": 1,
          "mode": 4
        }
      ]
    },
    {
      "name": "defaultMaterial",
      "primitives": [
        {
          "attributes": {
            "NORMAL": 21,
            "POSITION": 20,
            "TANGENT": 22,
            "TEXCOORD_0": 23
          },
          "indices": 24,
          "material": 0,
          "mode": 4
        }
      ]
    }
  ],
  "nodes": [
    {
      "children": [
        1
      ],
      "matrix": [
        1.0,
        0.0,
        0.0,
        0.0,
        0.0,
        2.220446049250313e-16,
        -1.0,
        0.0,
        0.0,
        1.0,
        2.220446049250313e-16,
        0.0,
        0.0,
        0.0,
        0.0,
        1.0
      ],
      "name": "Sketchfab_model"
    },
    {
      "children": [
        2,
        4,
        6,
        8,
        10
      ],
      "matrix": [
        1.0,
        0.0,
        0.0,
        0.0,
        0.0,
        -4.371139006309477e-08,
        0.999999999999999,
        0.0,
        0.0,
        -0.999999999999999,
        -4.371139006309477e-08,
        0.0,
        0.0,
        0.0,
        0.0,
        1.0
      ],
      "name": "Collada visual scene group"
    },
    {
      "children": [
        3
      ],
      "name": "gear7"
    },
    {
      "mesh": 0,
      "name": "defaultMaterial"
    },
    {
      "children": [
        5
      ],
      "name": "gear5"
    },
    {
      "mesh": 1,
      "name": "defaultMaterial"
    },
    {
      "children": [
        7
      ],
      "name": "gear4"
    },
    {
      "mesh": 2,
      "name": "defaultMaterial"
    },
    {
      "children": [
        9
      ],
      "name": "gear2"
    },
    {
      "mesh": 3,
      "name": "defaultMaterial"
    },
    {
      "children": [
        11
      ],
      "name": "gear1"
    },
    {
      "mesh": 4,
      "name": "defaultMaterial"
    }
  ],
  "samplers": [
    {
      "magFilter": 9729,
      "minFilter": 9987,
      "wrapS": 10497,
      "wrapT": 10497
    }
  ],
  "scene": 0,
  "scenes": [
    {
      "name": "Sketchfab_Scene",
      "nodes": [
        0
      ]
    }
  ],
  "textures": [
    {
      "sampler": 0,
      "source": 0
    },
    {
      "sampler": 0,
      "source": 1
    },
    {
      "sampler": 0,
      "source": 2
    },
    {
      "sampler": 0,
      "source": 3
    },
    {
      "sampler": 0,
      "source": 4
    },
    {
      "sampler": 0,
      "source": 5
    },
    {
      "sampler": 0,
      "source": 6
    },
    {
      "sampler": 0,
      "source": 7
    },
    {
      "sampler": 0,
      "source": 8
    },
    {
      "sampler": 0,
      "source": 9
    },
    {
      "sampler": 0,
      "source": 10
    },
    {
      "sampler": 0,
      "source": 11
    },
    {
      "sampler": 0,
      "source": 12
    },
    {
      "sampler": 0,
      "source": 13
    },
    {
      "sampler": 0,
      "source": 14
    }
  ]
}
